<?xml version="1.0"?>
<svg xmlns="http://www.w3.org/2000/svg" height="512px" viewBox="-21 -116 682.66407 682" width="512px" class="hovered-paths"><g><path d="m638.324219 213.238281-61.484375-106.496093c-2.230469-3.867188-6.359375-6.25-10.824219-6.25h-115.828125l-57.875-100.242188c-2.230469-3.867188-6.355469-6.25-10.824219-6.25h-122.96875c-4.464843 0-8.589843 2.382812-10.824219 6.25l-57.878906 100.242188h-64.941406c-6.902344 0-12.5 5.597656-12.5 12.5 0 6.90625 5.597656 12.5 12.5 12.5h64.859375l54.269531 93.996093-54.269531 93.992188h-108.535156l-54.265625-93.992188 32.136718-55.664062c3.453126-5.976563 1.402344-13.625-4.574218-17.078125-5.980469-3.449219-13.628906-1.40625-17.074219 4.578125l-35.75 61.914062c-2.230469 3.867188-2.230469 8.632813 0 12.5l61.484375 106.492188c2.234375 3.867187 6.359375 6.25 10.828125 6.25h115.832031l57.878906 100.246093c2.234376 3.867188 6.359376 6.25 10.824219 6.25h122.96875c4.46875 0 8.59375-2.382812 10.824219-6.25l57.875-100.246093h66.171875c6.90625 0 12.5-5.59375 12.5-12.5 0-6.902344-5.59375-12.5-12.5-12.5h-66.097656l-54.261719-93.992188 54.261719-93.996093h108.535156l54.269531 93.996093-32.4375 56.179688c-3.453125 5.980469-1.40625 13.625 4.574219 17.074219 5.980469 3.453124 13.625 1.40625 17.074219-4.574219l36.046875-62.429688c2.230469-3.867187 2.230469-8.632812 0-12.5zm-372.589844-194.238281h108.535156l54.269531 93.992188-54.269531 93.996093h-108.535156l-54.265625-93.996093zm108.535156 400.976562h-108.535156l-54.265625-93.996093 54.265625-93.992188h108.535156l54.269531 93.992188zm0 0" data-original="#000000" class="hovered-path active-path" data-old_color="#000000" fill="#01194F"/><path d="m81.316406 224.644531c-3.789062 5.765625-2.1875 13.519531 3.585938 17.308594l31.710937 20.839844c2.109375 1.382812 4.492188 2.054687 6.855469 2.054687 3.660156 0 7.273438-1.605468 9.722656-4.636718l53.179688-65.71875c4.34375-5.367188 3.515625-13.238282-1.855469-17.578126-5.363281-4.347656-13.238281-3.515624-17.578125 1.851563l-46.054688 56.914063-22.257812-14.621094c-5.769531-3.792969-13.519531-2.1875-17.308594 3.585937zm0 0" data-original="#000000" class="hovered-path active-path" data-old_color="#000000" fill="#01194F"/><path d="m281.105469 153.863281c2.441406 2.441407 5.640625 3.660157 8.839843 3.660157 3.203126 0 6.402344-1.21875 8.84375-3.660157l23.1875-23.191406 23.1875 23.191406c2.441407 2.441407 5.640626 3.660157 8.839844 3.660157 3.195313 0 6.394532-1.21875 8.835938-3.660157 4.882812-4.882812 4.882812-12.800781 0-17.683593l-23.1875-23.1875 23.1875-23.1875c4.882812-4.882813 4.882812-12.796876 0-17.679688-4.882813-4.882812-12.792969-4.882812-17.675782 0l-23.1875 23.1875-23.195312-23.1875c-4.882812-4.882812-12.792969-4.882812-17.675781 0-4.882813 4.875-4.882813 12.796875 0 17.679688l23.191406 23.1875-23.191406 23.1875c-4.882813 4.882812-4.882813 12.800781 0 17.683593zm0 0" data-original="#000000" class="hovered-path active-path" data-old_color="#000000" fill="#01194F"/><path d="m504.53125 273.433594c6.902344 0 12.5-5.601563 12.5-12.5v-32.800782h32.792969c6.902343 0 12.503906-5.59375 12.503906-12.5 0-6.902343-5.601563-12.5-12.503906-12.5h-32.792969v-32.792968c0-6.902344-5.597656-12.5-12.5-12.5-6.90625 0-12.5 5.597656-12.5 12.5v32.792968h-32.792969c-6.90625 0-12.507812 5.597657-12.507812 12.5 0 6.90625 5.601562 12.5 12.507812 12.5h32.792969v32.800782c0 6.902344 5.59375 12.5 12.5 12.5zm0 0" data-original="#000000" class="hovered-path active-path" data-old_color="#000000" fill="#01194F"/><path d="m276.679688 313.480469c-6.902344 0-12.5 5.597656-12.5 12.5 0 6.90625 5.597656 12.5 12.5 12.5h90.589843c6.902344 0 12.5-5.59375 12.5-12.5 0-6.902344-5.597656-12.5-12.5-12.5zm0 0" data-original="#000000" class="hovered-path active-path" data-old_color="#000000" fill="#01194F"/><path d="m68.03125 127.03125.347656.261719c2.257813 1.726562 4.921875 2.554687 7.5625 2.554687 3.769532 0 7.496094-1.699218 9.957032-4.925781 4.179687-5.492187 3.117187-13.335937-2.375-17.519531l-.347657-.265625c-5.492187-4.1875-13.339843-3.117188-17.519531 2.375-4.183594 5.492187-3.117188 13.335937 2.375 17.519531zm0 0" data-original="#000000" class="hovered-path active-path" data-old_color="#000000" fill="#01194F"/><path d="m574.144531 314.339844-.347656-.269532c-5.492187-4.183593-13.335937-3.113281-17.519531 2.375-4.183594 5.492188-3.121094 13.335938 2.375 17.519532l.34375.261718c2.261718 1.726563 4.921875 2.558594 7.566406 2.558594 3.769531 0 7.492188-1.699218 9.953125-4.929687 4.179687-5.492188 3.121094-13.335938-2.371094-17.515625zm0 0" data-original="#000000" class="hovered-path active-path" data-old_color="#000000" fill="#01194F"/></g> </svg>
